<svg width="160" height="12" viewBox="0 0 160 12" fill="none" xmlns="http://www.w3.org/2000/svg">
<path d="M12.3047 12V0.726562H9.53125L6.40625 8.5H6.26562L3.14844 0.726562H0.367188V12H2.55469V4.36719H2.67969L5.55469 11.4453H7.125L9.99219 4.36719H10.1172V12H12.3047ZM18.1984 12V0.726562H15.8391V12H18.1984ZM24.0922 12V8.55469L25.2094 7.21094L28.4828 12H31.3109L26.9125 5.66406L31.0219 0.726562H28.3969L24.2328 5.78906H24.0922V0.726562H21.7328V12H24.0922ZM41.1344 12H43.6891L39.775 0.726562H37.0016L33.0875 12H35.4547L36.3219 9.26562H40.2828L41.1344 12ZM38.2438 3.01562H38.3844L39.7828 7.5H36.8297L38.2438 3.01562ZM63.2734 12V0.726562H60.5L57.375 8.5H57.2344L54.1172 0.726562H51.3359V12H53.5234V4.36719H53.6484L56.5234 11.4453H58.0938L60.9609 4.36719H61.0859V12H63.2734ZM74.05 12H76.6047L72.6906 0.726562H69.9172L66.0031 12H68.3703L69.2375 9.26562H73.1984L74.05 12ZM71.1594 3.01562H71.3L72.6984 7.5H69.7453L71.1594 3.01562ZM83.2016 12V2.67188H86.5844V0.726562H77.4594V2.67188H80.8422V12H83.2016ZM91.8297 12V0.726562H89.4703V12H91.8297ZM97.7234 12V8.55469L98.8406 7.21094L102.114 12H104.942L100.544 5.66406L104.653 0.726562H102.028L97.8641 5.78906H97.7234V0.726562H95.3641V12H97.7234ZM114.766 12H117.32L113.406 0.726562H110.633L106.719 12H109.086L109.953 9.26562H113.914L114.766 12ZM111.875 3.01562H112.016L113.414 7.5H110.461L111.875 3.01562ZM122.402 12V0.726562H120.042V12H122.402ZM128.194 12V4.78906H128.334L133.537 12H135.491V0.726562H133.233V7.90625H133.092L127.905 0.726562H125.936V12H128.194ZM146.502 10.0547H141.392V7.20312H146.212V5.39062H141.392V2.67188H146.502V0.726562H139.033V12H146.502V10.0547ZM152.044 12V4.78906H152.184L157.387 12H159.341V0.726562H157.083V7.90625H156.942L151.755 0.726562H149.786V12H152.044Z" fill="black"/>
</svg>
