<svg width="190" height="15" viewBox="0 0 190 15" fill="none" xmlns="http://www.w3.org/2000/svg">
<path d="M8.76562 12H10.2422L6.08594 0.726562H4.69531L0.539062 12H2.01562L3.14844 8.77344H7.63281L8.76562 12ZM5.32812 2.54688H5.45312L7.21875 7.57812H3.5625L5.32812 2.54688ZM16.1484 3.42969C15 3.42969 13.9922 4.01562 13.4531 4.98438H13.3281V3.57812H12.0469V14.8125H13.3906V10.7344H13.5156C13.9766 11.625 14.9453 12.1484 16.1484 12.1484C18.2891 12.1484 19.6875 10.4219 19.6875 7.78906C19.6875 5.14062 18.2969 3.42969 16.1484 3.42969ZM15.8281 10.9375C14.3125 10.9375 13.3516 9.71875 13.3516 7.78906C13.3516 5.85156 14.3125 4.64062 15.8359 4.64062C17.375 4.64062 18.2969 5.82031 18.2969 7.78906C18.2969 9.75781 17.375 10.9375 15.8281 10.9375ZM21.7969 12H23.1406V6.78125C23.1406 5.59375 24.0703 4.73438 25.3516 4.73438C25.6172 4.73438 26.1016 4.78125 26.2109 4.8125V3.46875C26.0391 3.44531 25.7578 3.42969 25.5391 3.42969C24.4219 3.42969 23.4531 4.00781 23.2031 4.82812H23.0781V3.57812H21.7969V12ZM35.0938 12H36.5V0.726562H35.1016L32.1016 2.88281V4.36719L34.9688 2.28906H35.0938V12ZM43.6172 12.2656C45.9219 12.2656 47.4922 10.6719 47.4922 8.35156C47.4922 6.11719 45.9297 4.63281 44.0391 4.63281C42.9141 4.63281 42.0781 4.97656 41.5312 5.65625H41.4062L41.7578 1.98438H46.9141V0.726562H40.6562L40.0078 7.17188H41.3281C41.7734 6.33594 42.6172 5.84375 43.6875 5.84375C45.1094 5.84375 46.0859 6.86719 46.0859 8.39062C46.0859 9.96875 45.1094 11.0312 43.6328 11.0312C42.3047 11.0312 41.3359 10.2266 41.2109 9.02344H39.8281C39.9531 10.9531 41.4844 12.2656 43.6172 12.2656ZM50.0859 14.8672L51.3125 10.4219H49.8203L49.0781 14.8672H50.0859ZM58.4219 3.90625H59.7812C59.7812 2.57031 60.6797 1.6875 62.0312 1.6875C63.3594 1.6875 64.1641 2.57812 64.1641 3.77344C64.1641 4.76562 63.7422 5.35156 62.3047 6.90625L58.4922 11.0312V12H65.7891V10.7344H60.4453V10.6094L63.0078 7.96094C65.0391 5.85938 65.6016 4.92188 65.6016 3.625C65.6016 1.79688 64.0938 0.460938 62.125 0.460938C59.9688 0.460938 58.4219 1.89844 58.4219 3.90625ZM71.9531 12.2656C74.4844 12.2656 75.9375 10.125 75.9375 6.38281C75.9375 2.64844 74.4609 0.460938 71.9531 0.460938C69.4297 0.460938 67.9531 2.64062 67.9531 6.35938C67.9531 10.1094 69.4141 12.2656 71.9531 12.2656ZM71.9531 11.0391C70.2891 11.0391 69.3672 9.375 69.3672 6.35938C69.3672 3.38281 70.3047 1.69531 71.9531 1.69531C73.6016 1.69531 74.5234 3.36719 74.5234 6.35938C74.5234 9.38281 73.6172 11.0391 71.9531 11.0391ZM78.1719 3.90625H79.5312C79.5312 2.57031 80.4297 1.6875 81.7812 1.6875C83.1094 1.6875 83.9141 2.57812 83.9141 3.77344C83.9141 4.76562 83.4922 5.35156 82.0547 6.90625L78.2422 11.0312V12H85.5391V10.7344H80.1953V10.6094L82.7578 7.96094C84.7891 5.85938 85.3516 4.92188 85.3516 3.625C85.3516 1.79688 83.8438 0.460938 81.875 0.460938C79.7188 0.460938 78.1719 1.89844 78.1719 3.90625ZM91.7031 12.2656C94.2344 12.2656 95.6875 10.125 95.6875 6.38281C95.6875 2.64844 94.2109 0.460938 91.7031 0.460938C89.1797 0.460938 87.7031 2.64062 87.7031 6.35938C87.7031 10.1094 89.1641 12.2656 91.7031 12.2656ZM91.7031 11.0391C90.0391 11.0391 89.1172 9.375 89.1172 6.35938C89.1172 3.38281 90.0547 1.69531 91.7031 1.69531C93.3516 1.69531 94.2734 3.36719 94.2734 6.35938C94.2734 9.38281 93.3672 11.0391 91.7031 11.0391ZM103.625 8.80469C104.188 8.80469 104.641 8.34375 104.641 7.78906C104.641 7.22656 104.188 6.77344 103.625 6.77344C103.07 6.77344 102.609 7.22656 102.609 7.78906C102.609 8.34375 103.07 8.80469 103.625 8.80469ZM116.922 12H118.297V9.66406H119.898V8.40625H118.297V0.726562H116.258C114.68 3.07812 112.953 5.82812 111.43 8.38281V9.66406H116.922V12ZM112.867 8.32031C114.094 6.25 115.57 3.92188 116.836 2.03125H116.93V8.41406H112.867V8.32031ZM126.594 12H127.938V6.78125C127.938 5.59375 128.789 4.64062 129.891 4.64062C130.953 4.64062 131.648 5.28125 131.648 6.28125V12H132.992V6.58594C132.992 5.51562 133.773 4.64062 134.945 4.64062C136.133 4.64062 136.719 5.25 136.719 6.49219V12H138.062V6.17969C138.062 4.41406 137.102 3.42969 135.383 3.42969C134.219 3.42969 133.258 4.01562 132.805 4.90625H132.68C132.289 4.03125 131.492 3.42969 130.352 3.42969C129.227 3.42969 128.383 3.96875 128 4.90625H127.875V3.57812H126.594V12ZM141.219 1.95312C141.734 1.95312 142.156 1.53125 142.156 1.01562C142.156 0.5 141.734 0.078125 141.219 0.078125C140.703 0.078125 140.281 0.5 140.281 1.01562C140.281 1.53125 140.703 1.95312 141.219 1.95312ZM140.547 12H141.891V3.57812H140.547V12ZM144.453 12H145.797V7.01562C145.797 5.53906 146.664 4.64062 148.008 4.64062C149.352 4.64062 149.992 5.35938 149.992 6.875V12H151.336V6.54688C151.336 4.54688 150.281 3.42969 148.391 3.42969C147.102 3.42969 146.281 3.97656 145.859 4.90625H145.734V3.57812H144.453V12ZM158.312 12H159.656V6.78125C159.656 5.59375 160.586 4.73438 161.867 4.73438C162.133 4.73438 162.617 4.78125 162.727 4.8125V3.46875C162.555 3.44531 162.273 3.42969 162.055 3.42969C160.938 3.42969 159.969 4.00781 159.719 4.82812H159.594V3.57812H158.312V12ZM169.75 9.82031C169.398 10.5625 168.664 10.9609 167.578 10.9609C166.148 10.9609 165.219 9.90625 165.148 8.24219V8.17969H171.203V7.66406C171.203 5.04688 169.82 3.42969 167.547 3.42969C165.234 3.42969 163.75 5.14844 163.75 7.79688C163.75 10.4609 165.211 12.1484 167.547 12.1484C169.391 12.1484 170.703 11.2578 171.094 9.82031H169.75ZM167.531 4.61719C168.867 4.61719 169.758 5.60156 169.789 7.09375H165.148C165.25 5.60156 166.188 4.61719 167.531 4.61719ZM175.656 12.1484C176.781 12.1484 177.703 11.6562 178.25 10.7578H178.375V12H179.656V6.23438C179.656 4.48438 178.508 3.42969 176.453 3.42969C174.656 3.42969 173.328 4.32031 173.148 5.67188H174.508C174.695 5.00781 175.398 4.625 176.406 4.625C177.664 4.625 178.312 5.19531 178.312 6.23438V7L175.883 7.14844C173.922 7.26562 172.812 8.13281 172.812 9.64062C172.812 11.1797 174.023 12.1484 175.656 12.1484ZM175.906 10.9688C174.93 10.9688 174.203 10.4688 174.203 9.60938C174.203 8.76562 174.766 8.32031 176.047 8.23438L178.312 8.08594V8.85938C178.312 10.0625 177.289 10.9688 175.906 10.9688ZM185.258 12.1484C186.422 12.1484 187.422 11.5938 187.953 10.6562H188.078V12H189.359V0.234375H188.016V4.90625H187.898C187.422 3.98438 186.43 3.42969 185.258 3.42969C183.117 3.42969 181.719 5.14844 181.719 7.78906C181.719 10.4375 183.102 12.1484 185.258 12.1484ZM185.57 4.64062C187.094 4.64062 188.047 5.85938 188.047 7.78906C188.047 9.73438 187.102 10.9375 185.57 10.9375C184.031 10.9375 183.109 9.75781 183.109 7.78906C183.109 5.82812 184.039 4.64062 185.57 4.64062Z" fill="black"/>
</svg>
