<svg width="648" height="72" viewBox="0 0 648 72" fill="none" xmlns="http://www.w3.org/2000/svg">
<g filter="url(#filter0_d_0_1)">
<rect x="4" y="3" width="640" height="64" rx="4" fill="white"/>
<rect x="4.5" y="3.5" width="639" height="63" rx="3.5" stroke="#EAEAEA"/>
</g>
<line x1="323.5" y1="67" x2="323.5" y2="3" stroke="#EAEAEA"/>
<g clip-path="url(#clip0_0_1)">
<path d="M84.0001 25.0416C78.4772 25.0416 74 29.5189 74 35.0417C74 39.995 77.6052 44.0972 82.3322 44.8916V37.128H79.9199V34.3342H82.3322V32.2741C82.3322 29.8839 83.7921 28.5814 85.9247 28.5814C86.9461 28.5814 87.8238 28.6575 88.0786 28.691V31.1894L86.5995 31.1901C85.44 31.1901 85.2165 31.741 85.2165 32.5497V34.3327H87.9832L87.6223 37.1265H85.2165V44.9584C90.1642 44.3562 94 40.1495 94 35.0388C94 29.5189 89.5228 25.0416 84.0001 25.0416Z" fill="#010002"/>
</g>
<path d="M110.883 37.9922C111.008 39.9922 112.688 41.2734 115.188 41.2734C117.859 41.2734 119.531 39.9297 119.531 37.7969C119.531 36.1094 118.578 35.1797 116.266 34.625L115.023 34.3203C113.555 33.9609 112.961 33.4922 112.961 32.6719C112.961 31.6172 113.883 30.9375 115.266 30.9375C116.578 30.9375 117.484 31.5938 117.648 32.6641H119.352C119.25 30.7812 117.578 29.4531 115.289 29.4531C112.828 29.4531 111.188 30.7812 111.188 32.7656C111.188 34.4062 112.117 35.375 114.156 35.8672L115.609 36.2188C117.102 36.5781 117.758 37.125 117.758 38.0078C117.758 39.0391 116.727 39.7812 115.32 39.7812C113.812 39.7812 112.766 39.0859 112.617 37.9922H110.883ZM121.719 41H123.398V36.0312C123.398 34.7031 124.164 33.8203 125.539 33.8203C126.727 33.8203 127.359 34.5156 127.359 35.9141V41H129.039V35.5156C129.039 33.5078 127.922 32.3594 126.109 32.3594C124.828 32.3594 123.93 32.9219 123.516 33.8672H123.383V29.1875H121.719V41ZM133.758 41.1406C134.875 41.1406 135.805 40.6562 136.312 39.7969H136.445V41H138.062V35.1953C138.062 33.4141 136.859 32.3516 134.727 32.3516C132.797 32.3516 131.422 33.2812 131.25 34.7109H132.875C133.062 34.0938 133.711 33.7422 134.648 33.7422C135.797 33.7422 136.391 34.2656 136.391 35.1953V35.9375L134.086 36.0781C132.062 36.2031 130.922 37.0859 130.922 38.6094C130.922 40.1562 132.117 41.1406 133.758 41.1406ZM134.188 39.7891C133.273 39.7891 132.609 39.3281 132.609 38.5391C132.609 37.7656 133.141 37.3516 134.312 37.2734L136.391 37.1328V37.8672C136.391 38.9609 135.453 39.7891 134.188 39.7891ZM140.453 41H142.133V35.9297C142.133 34.7344 143.031 33.9141 144.305 33.9141C144.602 33.9141 145.102 33.9688 145.242 34.0078V32.4297C145.062 32.3906 144.742 32.3672 144.492 32.3672C143.383 32.3672 142.438 32.9688 142.195 33.8047H142.07V32.5156H140.453V41ZM152.219 38.7266C151.906 39.4141 151.211 39.7891 150.195 39.7891C148.852 39.7891 147.984 38.8203 147.93 37.2812V37.2031H153.938V36.625C153.938 33.9688 152.508 32.3516 150.141 32.3516C147.742 32.3516 146.219 34.0781 146.219 36.7734C146.219 39.4844 147.711 41.1641 150.148 41.1641C152.094 41.1641 153.469 40.2266 153.836 38.7266H152.219ZM150.133 33.7188C151.375 33.7188 152.188 34.6172 152.227 35.9922H147.93C148.023 34.625 148.891 33.7188 150.133 33.7188ZM163.922 41.1641C166.406 41.1641 167.93 39.5 167.93 36.7578C167.93 34.0156 166.398 32.3516 163.922 32.3516C161.438 32.3516 159.906 34.0234 159.906 36.7578C159.906 39.5 161.43 41.1641 163.922 41.1641ZM163.922 39.7344C162.461 39.7344 161.641 38.6484 161.641 36.7578C161.641 34.8672 162.461 33.7734 163.922 33.7734C165.375 33.7734 166.203 34.8672 166.203 36.7578C166.203 38.6406 165.375 39.7344 163.922 39.7344ZM169.953 41H171.633V36.0234C171.633 34.6562 172.422 33.8125 173.664 33.8125C174.906 33.8125 175.5 34.5 175.5 35.9062V41H177.18V35.5078C177.18 33.4844 176.133 32.3516 174.234 32.3516C172.953 32.3516 172.109 32.9219 171.695 33.8594H171.57V32.5156H169.953V41ZM185.867 41V36.2812H190.711V34.8047H185.867V31.2344H191.156V29.7266H184.117V41H185.867ZM195.086 41.1406C196.203 41.1406 197.133 40.6562 197.641 39.7969H197.773V41H199.391V35.1953C199.391 33.4141 198.188 32.3516 196.055 32.3516C194.125 32.3516 192.75 33.2812 192.578 34.7109H194.203C194.391 34.0938 195.039 33.7422 195.977 33.7422C197.125 33.7422 197.719 34.2656 197.719 35.1953V35.9375L195.414 36.0781C193.391 36.2031 192.25 37.0859 192.25 38.6094C192.25 40.1562 193.445 41.1406 195.086 41.1406ZM195.516 39.7891C194.602 39.7891 193.938 39.3281 193.938 38.5391C193.938 37.7656 194.469 37.3516 195.641 37.2734L197.719 37.1328V37.8672C197.719 38.9609 196.781 39.7891 195.516 39.7891ZM208.984 35.2422C208.766 33.5938 207.477 32.3516 205.344 32.3516C202.867 32.3516 201.359 34.0312 201.359 36.7266C201.359 39.4766 202.875 41.1641 205.352 41.1641C207.453 41.1641 208.766 39.9844 208.984 38.3125H207.352C207.133 39.2344 206.406 39.7344 205.344 39.7344C203.945 39.7344 203.078 38.6016 203.078 36.7266C203.078 34.8906 203.938 33.7812 205.344 33.7812C206.469 33.7812 207.156 34.4141 207.352 35.2422H208.984ZM216.484 38.7266C216.172 39.4141 215.477 39.7891 214.461 39.7891C213.117 39.7891 212.25 38.8203 212.195 37.2812V37.2031H218.203V36.625C218.203 33.9688 216.773 32.3516 214.406 32.3516C212.008 32.3516 210.484 34.0781 210.484 36.7734C210.484 39.4844 211.977 41.1641 214.414 41.1641C216.359 41.1641 217.734 40.2266 218.102 38.7266H216.484ZM214.398 33.7188C215.641 33.7188 216.453 34.6172 216.492 35.9922H212.195C212.289 34.625 213.156 33.7188 214.398 33.7188ZM224.727 41.1406C226.875 41.1406 228.242 39.4297 228.242 36.7578C228.242 34.0625 226.883 32.3672 224.727 32.3672C223.562 32.3672 222.562 32.9375 222.109 33.8594H221.977V29.1875H220.297V41H221.914V39.6562H222.039C222.547 40.5938 223.539 41.1406 224.727 41.1406ZM224.242 33.8047C225.664 33.8047 226.516 34.9219 226.516 36.7578C226.516 38.5938 225.664 39.7031 224.242 39.7031C222.828 39.7031 221.953 38.5781 221.945 36.7578C221.953 34.9375 222.836 33.8047 224.242 33.8047ZM233.859 41.1641C236.344 41.1641 237.867 39.5 237.867 36.7578C237.867 34.0156 236.336 32.3516 233.859 32.3516C231.375 32.3516 229.844 34.0234 229.844 36.7578C229.844 39.5 231.367 41.1641 233.859 41.1641ZM233.859 39.7344C232.398 39.7344 231.578 38.6484 231.578 36.7578C231.578 34.8672 232.398 33.7734 233.859 33.7734C235.312 33.7734 236.141 34.8672 236.141 36.7578C236.141 38.6406 235.312 39.7344 233.859 39.7344ZM243.484 41.1641C245.969 41.1641 247.492 39.5 247.492 36.7578C247.492 34.0156 245.961 32.3516 243.484 32.3516C241 32.3516 239.469 34.0234 239.469 36.7578C239.469 39.5 240.992 41.1641 243.484 41.1641ZM243.484 39.7344C242.023 39.7344 241.203 38.6484 241.203 36.7578C241.203 34.8672 242.023 33.7734 243.484 33.7734C244.938 33.7734 245.766 34.8672 245.766 36.7578C245.766 38.6406 244.938 39.7344 243.484 39.7344ZM251.406 36.0938H251.273V29.1875H249.594V41H251.273V37.9141L252.016 37.2031L254.938 41H257L253.266 36.1484L256.766 32.5156H254.781L251.406 36.0938Z" fill="black"/>
<path d="M426 26.0101C425.042 26.6877 423.982 27.2059 422.86 27.5449C422.258 26.8502 421.457 26.3579 420.567 26.1344C419.677 25.9109 418.739 25.9671 417.882 26.2954C417.025 26.6237 416.288 27.2082 415.773 27.9699C415.258 28.7316 414.988 29.6338 415 30.5543V31.5574C413.243 31.6032 411.501 31.2122 409.931 30.4193C408.361 29.6265 407.01 28.4564 406 27.0132C406 27.0132 402 36.0415 411 40.054C408.941 41.4564 406.487 42.1595 404 42.0603C413 47.076 424 42.0603 424 30.5242C423.999 30.2448 423.972 29.9661 423.92 29.6916C424.941 28.6819 425.661 27.4072 426 26.0101Z" fill="black"/>
<path d="M442.883 37.9922C443.008 39.9922 444.688 41.2734 447.188 41.2734C449.859 41.2734 451.531 39.9297 451.531 37.7969C451.531 36.1094 450.578 35.1797 448.266 34.625L447.023 34.3203C445.555 33.9609 444.961 33.4922 444.961 32.6719C444.961 31.6172 445.883 30.9375 447.266 30.9375C448.578 30.9375 449.484 31.5938 449.648 32.6641H451.352C451.25 30.7812 449.578 29.4531 447.289 29.4531C444.828 29.4531 443.188 30.7812 443.188 32.7656C443.188 34.4062 444.117 35.375 446.156 35.8672L447.609 36.2188C449.102 36.5781 449.758 37.125 449.758 38.0078C449.758 39.0391 448.727 39.7812 447.32 39.7812C445.812 39.7812 444.766 39.0859 444.617 37.9922H442.883ZM453.719 41H455.398V36.0312C455.398 34.7031 456.164 33.8203 457.539 33.8203C458.727 33.8203 459.359 34.5156 459.359 35.9141V41H461.039V35.5156C461.039 33.5078 459.922 32.3594 458.109 32.3594C456.828 32.3594 455.93 32.9219 455.516 33.8672H455.383V29.1875H453.719V41ZM465.758 41.1406C466.875 41.1406 467.805 40.6562 468.312 39.7969H468.445V41H470.062V35.1953C470.062 33.4141 468.859 32.3516 466.727 32.3516C464.797 32.3516 463.422 33.2812 463.25 34.7109H464.875C465.062 34.0938 465.711 33.7422 466.648 33.7422C467.797 33.7422 468.391 34.2656 468.391 35.1953V35.9375L466.086 36.0781C464.062 36.2031 462.922 37.0859 462.922 38.6094C462.922 40.1562 464.117 41.1406 465.758 41.1406ZM466.188 39.7891C465.273 39.7891 464.609 39.3281 464.609 38.5391C464.609 37.7656 465.141 37.3516 466.312 37.2734L468.391 37.1328V37.8672C468.391 38.9609 467.453 39.7891 466.188 39.7891ZM472.453 41H474.133V35.9297C474.133 34.7344 475.031 33.9141 476.305 33.9141C476.602 33.9141 477.102 33.9688 477.242 34.0078V32.4297C477.062 32.3906 476.742 32.3672 476.492 32.3672C475.383 32.3672 474.438 32.9688 474.195 33.8047H474.07V32.5156H472.453V41ZM484.219 38.7266C483.906 39.4141 483.211 39.7891 482.195 39.7891C480.852 39.7891 479.984 38.8203 479.93 37.2812V37.2031H485.938V36.625C485.938 33.9688 484.508 32.3516 482.141 32.3516C479.742 32.3516 478.219 34.0781 478.219 36.7734C478.219 39.4844 479.711 41.1641 482.148 41.1641C484.094 41.1641 485.469 40.2266 485.836 38.7266H484.219ZM482.133 33.7188C483.375 33.7188 484.188 34.6172 484.227 35.9922H479.93C480.023 34.625 480.891 33.7188 482.133 33.7188ZM495.922 41.1641C498.406 41.1641 499.93 39.5 499.93 36.7578C499.93 34.0156 498.398 32.3516 495.922 32.3516C493.438 32.3516 491.906 34.0234 491.906 36.7578C491.906 39.5 493.43 41.1641 495.922 41.1641ZM495.922 39.7344C494.461 39.7344 493.641 38.6484 493.641 36.7578C493.641 34.8672 494.461 33.7734 495.922 33.7734C497.375 33.7734 498.203 34.8672 498.203 36.7578C498.203 38.6406 497.375 39.7344 495.922 39.7344ZM501.953 41H503.633V36.0234C503.633 34.6562 504.422 33.8125 505.664 33.8125C506.906 33.8125 507.5 34.5 507.5 35.9062V41H509.18V35.5078C509.18 33.4844 508.133 32.3516 506.234 32.3516C504.953 32.3516 504.109 32.9219 503.695 33.8594H503.57V32.5156H501.953V41ZM520.727 41V31.2344H524.266V29.7266H515.43V31.2344H518.977V41H520.727ZM536.453 32.5156H534.773L533.258 39.0625H533.125L531.375 32.5156H529.766L528.016 39.0625H527.891L526.367 32.5156H524.664L527.008 41H528.734L530.484 34.6719H530.617L532.375 41H534.117L536.453 32.5156ZM539.055 31C539.641 31 540.117 30.5234 540.117 29.9453C540.117 29.3594 539.641 28.8828 539.055 28.8828C538.469 28.8828 537.992 29.3594 537.992 29.9453C537.992 30.5234 538.469 31 539.055 31ZM538.219 41H539.891V32.5156H538.219V41ZM542.953 30.375V32.5391H541.602V33.8828H542.953V38.7656C542.953 40.3984 543.695 41.0547 545.562 41.0547C545.891 41.0547 546.203 41.0156 546.477 40.9688V39.6328C546.242 39.6562 546.094 39.6719 545.836 39.6719C545 39.6719 544.633 39.2734 544.633 38.3594V33.8828H546.477V32.5391H544.633V30.375H542.953ZM549.078 30.375V32.5391H547.727V33.8828H549.078V38.7656C549.078 40.3984 549.82 41.0547 551.688 41.0547C552.016 41.0547 552.328 41.0156 552.602 40.9688V39.6328C552.367 39.6562 552.219 39.6719 551.961 39.6719C551.125 39.6719 550.758 39.2734 550.758 38.3594V33.8828H552.602V32.5391H550.758V30.375H549.078ZM560.062 38.7266C559.75 39.4141 559.055 39.7891 558.039 39.7891C556.695 39.7891 555.828 38.8203 555.773 37.2812V37.2031H561.781V36.625C561.781 33.9688 560.352 32.3516 557.984 32.3516C555.586 32.3516 554.062 34.0781 554.062 36.7734C554.062 39.4844 555.555 41.1641 557.992 41.1641C559.938 41.1641 561.312 40.2266 561.68 38.7266H560.062ZM557.977 33.7188C559.219 33.7188 560.031 34.6172 560.07 35.9922H555.773C555.867 34.625 556.734 33.7188 557.977 33.7188ZM563.797 41H565.477V35.9297C565.477 34.7344 566.375 33.9141 567.648 33.9141C567.945 33.9141 568.445 33.9688 568.586 34.0078V32.4297C568.406 32.3906 568.086 32.3672 567.836 32.3672C566.727 32.3672 565.781 32.9688 565.539 33.8047H565.414V32.5156H563.797V41Z" fill="black"/>
<defs>
<filter id="filter0_d_0_1" x="0" y="0" width="648" height="72" filterUnits="userSpaceOnUse" color-interpolation-filters="sRGB">
<feFlood flood-opacity="0" result="BackgroundImageFix"/>
<feColorMatrix in="SourceAlpha" type="matrix" values="0 0 0 0 0 0 0 0 0 0 0 0 0 0 0 0 0 0 127 0" result="hardAlpha"/>
<feOffset dy="1"/>
<feGaussianBlur stdDeviation="2"/>
<feColorMatrix type="matrix" values="0 0 0 0 0 0 0 0 0 0 0 0 0 0 0 0 0 0 0.08 0"/>
<feBlend mode="normal" in2="BackgroundImageFix" result="effect1_dropShadow_0_1"/>
<feBlend mode="normal" in="SourceGraphic" in2="effect1_dropShadow_0_1" result="shape"/>
</filter>
<clipPath id="clip0_0_1">
<rect width="20" height="20" fill="white" transform="translate(74 25)"/>
</clipPath>
</defs>
</svg>
