<svg width="292" height="30" viewBox="0 0 292 30" fill="none" xmlns="http://www.w3.org/2000/svg">
<path d="M1.18565 25.125H11.5537V24.5494L8.22565 24.1092C7.26565 23.9737 6.56165 23.1949 6.56165 22.1452V5.92522L19.7457 25.125H21.1857V4.3337C21.1857 3.31784 21.8577 2.47129 22.8177 2.33584L25.2497 1.99722V1.42157H14.8817V1.99722L18.2097 2.43743C19.1697 2.57288 19.8737 3.35171 19.8737 4.40143V19.5039L10.3057 5.28184C7.64966 1.35384 5.02565 1.42157 0.545654 1.42157V1.99722C2.49765 2.30198 4.41765 3.08081 5.24965 4.63846V22.2129C5.24965 23.2287 4.57765 24.0753 3.61765 24.2107L1.18565 24.5494V25.125Z" fill="white"/>
<path d="M43.2887 25.6668C50.2007 25.6668 55.2247 20.6552 55.2247 13.2733C55.2247 5.89136 50.2007 0.913635 43.2887 0.913635C36.3767 0.913635 31.3207 5.89136 31.3207 13.2733C31.3207 20.6552 36.3767 25.6668 43.2887 25.6668ZM43.3207 24.4816C37.5607 24.4816 35.2247 19.0976 35.2247 12.4945C35.2247 6.33157 37.6887 2.09881 43.2567 2.09881C48.8887 2.09881 51.2887 7.38129 51.2887 13.7812C51.2887 20.1473 49.1127 24.4816 43.3207 24.4816Z" fill="white"/>
<path d="M72.2754 13.6796H72.5314C75.8274 23.3303 81.7154 27.6647 84.9474 29.798C80.4034 23.2287 78.2594 18.8944 76.2114 13.3749C80.0834 12.6299 82.0994 10.6998 82.0994 7.38129C82.0994 3.11467 78.5794 1.42157 71.9554 1.42157H61.9394V1.99722L63.9874 2.26812C64.9474 2.40357 65.6514 3.18239 65.6514 4.23212V22.3145C65.6514 23.3642 64.9474 24.143 63.9874 24.2785L61.9394 24.5494V25.125H73.0754V24.5494L71.0274 24.2785C70.0674 24.143 69.3634 23.3642 69.3634 22.3145V13.6796H72.2754ZM69.3634 2.60674H72.7554C76.9794 2.60674 78.7074 4.19826 78.7074 7.5506C78.7074 10.9029 76.7554 12.4945 72.2434 12.4945H69.3634V2.60674Z" fill="white"/>
<path d="M91.0269 25.125H101.971C109.907 25.125 114.995 20.8584 114.995 13.341C114.995 5.45115 109.907 1.42157 101.971 1.42157H91.0269V1.99722L93.0749 2.26812C94.0349 2.40357 94.7389 3.18239 94.7389 4.23212V22.3145C94.7389 23.3642 94.0349 24.143 93.0749 24.2785L91.0269 24.5494V25.125ZM100.115 23.9398C99.1549 23.9398 98.4509 23.3642 98.4509 22.3145V2.60674H101.459C106.195 2.60674 111.123 4.74005 111.123 13.341C111.123 21.2986 106.771 23.9398 101.459 23.9398H100.115Z" fill="white"/>
<path d="M122.021 25.125H133.157V24.5494L131.109 24.2785C130.149 24.143 129.445 23.3642 129.445 22.3145V4.23212C129.445 3.18239 130.149 2.40357 131.109 2.26812L133.157 1.99722V1.42157H122.021V1.99722L124.069 2.26812C125.029 2.40357 125.733 3.18239 125.733 4.23212V22.3145C125.733 23.3642 125.029 24.143 124.069 24.2785L122.021 24.5494V25.125Z" fill="white"/>
<path d="M152.154 25.6329C155.866 25.6329 159.834 24.143 162.426 21.5695V19.5378C159.93 22.0097 156.506 23.2626 153.114 23.2626C148.218 23.2626 144.218 19.6394 144.218 13.2733C144.218 6.60246 146.97 2.09881 152.154 2.09881C156.826 2.09881 159.29 6.26384 158.714 13.578H159.578L161.498 4.53688C159.674 2.33584 154.714 0.913635 152.154 0.913635C144.922 0.913635 140.186 5.89136 140.186 13.2733C140.186 20.6891 144.986 25.6329 152.154 25.6329Z" fill="white"/>
<path d="M193.9 13.6796H194.156C197.452 23.3303 203.34 27.6647 206.572 29.798C202.028 23.2287 199.884 18.8944 197.836 13.3749C201.708 12.6299 203.724 10.6998 203.724 7.38129C203.724 3.11467 200.204 1.42157 193.58 1.42157H183.564V1.99722L185.612 2.26812C186.572 2.40357 187.276 3.18239 187.276 4.23212V22.3145C187.276 23.3642 186.572 24.143 185.612 24.2785L183.564 24.5494V25.125H194.7V24.5494L192.652 24.2785C191.692 24.143 190.988 23.3642 190.988 22.3145V13.6796H193.9ZM190.988 2.60674H194.38C198.604 2.60674 200.332 4.19826 200.332 7.5506C200.332 10.9029 198.38 12.4945 193.868 12.4945H190.988V2.60674Z" fill="white"/>
<path d="M224.276 25.6668C231.188 25.6668 236.212 20.6552 236.212 13.2733C236.212 5.89136 231.188 0.913635 224.276 0.913635C217.364 0.913635 212.308 5.89136 212.308 13.2733C212.308 20.6552 217.364 25.6668 224.276 25.6668ZM224.308 24.4816C218.548 24.4816 216.212 19.0976 216.212 12.4945C216.212 6.33157 218.676 2.09881 224.244 2.09881C229.876 2.09881 232.276 7.38129 232.276 13.7812C232.276 20.1473 230.1 24.4816 224.308 24.4816Z" fill="white"/>
<path d="M253.568 25.6329C258.368 25.6329 261.76 23.0594 261.76 19.3346C261.76 9.98867 248.736 10.9368 248.736 6.26384C248.736 3.85964 250.816 2.09881 254.24 2.09881C257.856 2.09881 259.552 4.63846 259.904 10.2257H260.768L261.088 2.53901C259.2 1.6586 256.8 0.913635 254.24 0.913635C249.248 0.913635 246.144 3.28398 246.144 6.60246C246.144 15.7114 259.2 14.4246 259.2 19.8425C259.2 22.5515 256.832 24.4478 253.888 24.4478C250.08 24.4478 248.16 21.6711 247.456 15.4066H246.592L245.952 23.4319C248.16 24.7187 250.208 25.6329 253.568 25.6329Z" fill="white"/>
<path d="M269.764 25.125H290.5L291.46 17.1336H290.916C288.964 22.4838 287.268 23.9398 284.42 23.9398H278.852C277.892 23.9398 277.188 23.3642 277.188 22.3145V13.6796H284.58C285.444 13.6796 286.308 14.323 286.372 15.2034L286.724 19.1653H287.268V7.34743H286.724L286.372 10.9707C286.276 11.8849 285.444 12.4945 284.58 12.4945H277.188V2.60674H283.78C286.148 2.60674 288.548 3.79191 289.828 9.44688H290.372L289.732 1.42157H269.764V1.99722L271.812 2.26812C272.772 2.40357 273.476 3.18239 273.476 4.23212V22.3145C273.476 23.3642 272.772 24.143 271.812 24.2785L269.764 24.5494V25.125Z" fill="white"/>
</svg>
